# xmcd
# Track frame offsets:
# 150
# 11933
# 30221
# 45781
# 60902
# 75551
# 92447
# 107163
# 123427
# 138934
# 153597
# 173716
# 186914
# 210460
# 225858
# 249089
# 269653
# 288642
#
# Disc length: 4125 seconds
# Revision: 0
# Processed by: cddbd v1.4PL0 Copyright (c) Steve Scherf et al.
# Submitted via: VisiTrax 2.9.3.171 - For more info visit www.synapsa.com
#
DISCID=dd101b12
DTITLE=Martina McBride - Greatest Hits
DYEAR=1900
DGENRE=
TTITLE0=My Baby Loves Me Just the Way that I Am
TTITLE1=Life #9
TTITLE2=Independance Day
TTITLE3=Strangers
TTITLE4=Safe In the Arms of Love
TTITLE5=Wild Angels
TTITLE6=My Valentine
TTITLE7=A Broken Wing
TTITLE8=Happy Girl
TTITLE9=Wrong Again
TTITLE10=Whatever You Say
TTITLE11=I Love You
TTITLE12=Love's the Only House
TTITLE13=There Are You
TTITLE14=When God-Fearin' Women Get the Blues
TTITLE15=Where Would You Be
TTITLE16=Concrete Angel
TTITLE17=Blessed
EXTD=
EXTT0=
EXTT1=
EXTT2=
EXTT3=
EXTT4=
EXTT5=
EXTT6=
EXTT7=
EXTT8=
EXTT9=
EXTT10=
EXTT11=
EXTT12=
EXTT13=
EXTT14=
EXTT15=
EXTT16=
EXTT17=
PLAYORDER=
